<svg xmlns="http://www.w3.org/2000/svg" xmlns:xlink="http://www.w3.org/1999/xlink" width="2000" zoomAndPan="magnify" viewBox="0 0 1500 1499.999933" height="2000" preserveAspectRatio="xMidYMid meet" version="1.0"><path fill="#472ee7" d="M 720.3125 289.6875 C 737.648438 272.617188 767.601562 272.617188 784.945312 289.6875 C 793.617188 298.226562 798.34375 309.476562 798.34375 321.117188 L 799.921875 484.078125 C 799.921875 484.851562 799.921875 487.570312 799.921875 488.34375 C 798.742188 512.402344 779.03125 531.414062 754.199219 531.414062 C 729.375 531.414062 709.667969 512.402344 708.484375 487.570312 L 706.515625 321.117188 C 707.300781 309.476562 712.03125 298.226562 720.3125 289.6875 Z M 720.3125 289.6875 " fill-opacity="1" fill-rule="nonzero"/><path fill="#472ee7" d="M 806.621094 485.632812 L 861.007812 333.148438 C 864.949219 321.898438 873.226562 312.585938 884.261719 307.152344 C 894.902344 302.109375 907.515625 301.332031 918.941406 305.214844 C 930.371094 309.09375 939.832031 317.242188 945.351562 328.105469 C 950.867188 338.96875 951.261719 350.996094 947.320312 362.636719 L 892.148438 515.898438 C 886.230469 534.910156 868.496094 548.101562 848.398438 548.101562 C 823.175781 548.101562 802.675781 527.925781 802.675781 503.09375 C 803.074219 496.109375 804.652344 489.125 806.621094 485.632812 Z M 806.621094 485.632812 " fill-opacity="1" fill-rule="nonzero"/><path fill="#472ee7" d="M 427.878906 404.925781 C 430.636719 399.496094 434.574219 394.839844 437.730469 392.121094 C 442.460938 387.855469 447.585938 384.75 453.496094 382.421875 C 459.40625 380.484375 465.714844 379.320312 472.015625 380.09375 C 478.320312 380.484375 484.230469 382.035156 490.144531 385.136719 C 495.664062 387.855469 500.394531 391.734375 503.941406 396.390625 L 610.351562 520.9375 C 619.417969 529.476562 624.148438 540.726562 624.148438 553.144531 C 624.148438 577.976562 603.652344 598.152344 578.429688 598.152344 C 565.03125 598.152344 552.417969 592.332031 543.746094 582.632812 L 433.789062 456.144531 C 429.84375 451.488281 426.695312 446.054688 424.726562 440.625 C 422.753906 434.804688 421.964844 428.59375 422.363281 422.773438 C 423.148438 416.179688 424.726562 410.359375 427.878906 404.925781 Z M 427.878906 404.925781 " fill-opacity="1" fill-rule="nonzero"/><path fill="#472ee7" d="M 560.300781 330.433594 C 565.425781 319.566406 574.488281 311.03125 585.921875 306.761719 C 597.347656 302.496094 609.5625 302.882812 620.601562 307.925781 C 631.636719 312.972656 640.308594 321.894531 644.640625 333.148438 L 702.183594 484.078125 C 704.9375 490.289062 706.515625 496.496094 706.515625 503.480469 C 706.515625 528.3125 686.023438 548.488281 660.800781 548.488281 C 643.855469 548.488281 628.089844 539.175781 620.203125 524.429688 C 619.417969 523.269531 619.023438 522.105469 618.234375 520.550781 L 558.722656 364.964844 C 554.78125 353.710938 555.175781 341.296875 560.300781 330.433594 Z M 560.300781 330.433594 " fill-opacity="1" fill-rule="nonzero"/><path fill="#472ee7" d="M 896.867188 519.769531 L 1002.890625 393.28125 C 1006.832031 388.625 1011.5625 385.132812 1016.679688 382.027344 C 1021.804688 379.3125 1027.714844 377.761719 1033.625 377.371094 C 1039.542969 376.984375 1045.453125 377.371094 1051.367188 378.925781 C 1057.277344 380.476562 1062.402344 383.582031 1067.128906 387.074219 C 1071.859375 390.953125 1075.800781 395.609375 1078.554688 400.652344 C 1081.316406 406.085938 1082.894531 411.515625 1083.679688 417.726562 C 1084.078125 423.546875 1083.679688 429.363281 1081.710938 435.183594 C 1080.132812 440.617188 1076.984375 446.050781 1073.4375 450.316406 L 968.996094 574.089844 C 960.324219 586.503906 946.527344 594.265625 931.160156 594.265625 C 905.9375 594.265625 885.441406 574.089844 885.441406 549.257812 C 885.441406 538.003906 889.773438 527.140625 896.867188 519.769531 Z M 896.867188 519.769531 " fill-opacity="1" fill-rule="nonzero"/><path fill="#472ee7" d="M 968.203125 583.011719 L 1112.84375 498.039062 C 1123.089844 492.21875 1135.308594 490.28125 1147.136719 493.382812 C 1158.957031 496.488281 1168.8125 503.472656 1175.113281 513.949219 C 1178.269531 518.992188 1180.238281 524.8125 1181.03125 530.632812 C 1181.816406 536.453125 1181.417969 542.273438 1180.238281 548.09375 C 1178.664062 553.914062 1176.300781 559.34375 1172.746094 564 C 1169.199219 568.65625 1164.472656 572.535156 1159.355469 575.640625 L 1016.679688 659.0625 C 1009.195312 663.714844 1000.914062 666.042969 992.25 666.042969 C 967.019531 666.042969 946.527344 645.867188 946.527344 621.035156 C 946.921875 605.902344 954.414062 591.9375 968.203125 583.011719 Z M 968.203125 583.011719 " fill-opacity="1" fill-rule="nonzero"/><path fill="#472ee7" d="M 1013.527344 666.050781 C 1013.925781 666.050781 1017.867188 665.277344 1018.257812 664.886719 L 1181.417969 634.234375 C 1193.636719 631.90625 1205.457031 634.625 1215.710938 641.21875 C 1225.5625 647.816406 1232.65625 658.292969 1235.019531 669.929688 C 1237.382812 681.960938 1234.625 693.597656 1227.925781 703.6875 C 1221.222656 713.777344 1210.585938 720.371094 1198.761719 722.699219 L 1035.996094 752.964844 C 1034.808594 753.351562 1033.238281 753.351562 1030.078125 753.738281 C 1029.292969 753.738281 1026.144531 754.128906 1025.351562 754.128906 C 1000.128906 754.128906 979.636719 733.953125 979.636719 709.121094 C 980.03125 689.332031 993.035156 672.261719 1013.527344 666.050781 Z M 1013.527344 666.050781 " fill-opacity="1" fill-rule="nonzero"/><path fill="#472ee7" d="M 1029.292969 758.394531 C 1030.871094 758.394531 1032.445312 758.78125 1034.023438 759.167969 L 1197.183594 785.945312 C 1203.09375 786.714844 1209.011719 788.273438 1214.527344 791.371094 C 1220.042969 794.085938 1224.777344 797.972656 1228.324219 803.015625 C 1232.257812 807.671875 1235.019531 813.484375 1236.203125 819.308594 C 1237.78125 825.128906 1237.78125 831.335938 1236.988281 837.15625 C 1235.804688 843.359375 1233.839844 849.183594 1230.292969 854.226562 C 1227.140625 859.273438 1222.40625 863.925781 1217.289062 867.03125 C 1212.164062 870.140625 1206.640625 872.855469 1200.339844 874.015625 C 1197.183594 874.792969 1194.429688 874.792969 1191.273438 874.792969 C 1188.121094 874.792969 1185.363281 874.40625 1182.996094 874.015625 L 1015.894531 846.855469 C 1013.925781 846.46875 1012.347656 846.078125 1010.769531 845.308594 C 992.25 839.09375 979.636719 822.023438 979.636719 802.625 C 980.03125 778.183594 1000.523438 759.167969 1029.292969 758.394531 Z M 1029.292969 758.394531 " fill-opacity="1" fill-rule="nonzero"/><path fill="#472ee7" d="M 993.433594 846.46875 C 1003.675781 846.46875 1013.140625 849.566406 1018.257812 853.839844 L 1162.113281 933.765625 C 1172.359375 939.582031 1180.242188 949.671875 1183.394531 960.925781 C 1186.941406 972.5625 1185.363281 984.589844 1179.449219 995.070312 C 1173.539062 1005.546875 1163.6875 1012.917969 1152.261719 1016.023438 C 1148.316406 1017.183594 1143.984375 1017.574219 1140.042969 1017.574219 C 1132.15625 1017.574219 1124.277344 1015.632812 1117.574219 1011.75 L 971.757812 930.273438 C 971.359375 929.882812 968.996094 928.722656 968.597656 928.335938 C 955.992188 919.796875 948.503906 905.828125 948.503906 891.085938 C 947.714844 866.253906 968.210938 846.46875 993.433594 846.46875 Z M 993.433594 846.46875 " fill-opacity="1" fill-rule="nonzero"/><path fill="#472ee7" d="M 932.738281 918.636719 C 943.773438 918.636719 954.800781 922.902344 963.085938 930.273438 C 964.265625 931.050781 965.449219 932.210938 966.234375 933.378906 L 1076.191406 1057.925781 C 1080.53125 1062.582031 1083.679688 1067.625 1086.046875 1073.449219 C 1088.011719 1079.261719 1089.195312 1085.476562 1088.410156 1091.679688 C 1088.011719 1097.890625 1086.441406 1103.707031 1083.285156 1109.527344 C 1080.53125 1114.960938 1076.191406 1120.003906 1072.644531 1122.722656 C 1067.914062 1126.988281 1062.789062 1130.09375 1056.878906 1131.644531 C 1052.152344 1133.199219 1047.027344 1133.972656 1041.910156 1133.972656 C 1040.71875 1133.972656 1039.933594 1133.972656 1038.75 1133.972656 C 1032.445312 1133.589844 1026.53125 1132.03125 1021.019531 1129.316406 C 1015.496094 1126.597656 1010.769531 1122.722656 1006.832031 1118.457031 L 901.597656 997.394531 C 892.140625 988.863281 886.625 976.832031 886.625 964.03125 C 887.023438 938.421875 907.515625 918.636719 932.738281 918.636719 Z M 932.738281 918.636719 " fill-opacity="1" fill-rule="nonzero"/><path fill="#472ee7" d="M 850.367188 965.582031 C 870.464844 965.582031 888.203125 978.777344 893.71875 996.234375 L 952.046875 1149.882812 C 954.414062 1155.316406 955.199219 1161.136719 955.199219 1166.953125 C 955.199219 1172.773438 953.628906 1178.597656 951.261719 1184.414062 C 948.898438 1189.847656 945.351562 1194.5 941.011719 1198.765625 C 936.679688 1202.652344 931.554688 1205.757812 926.039062 1208.085938 C 920.914062 1210.023438 915.394531 1211.183594 909.878906 1211.183594 C 909.484375 1211.183594 909.09375 1211.183594 908.699219 1211.183594 C 902.785156 1211.183594 896.875 1209.632812 890.964844 1206.917969 C 885.441406 1204.589844 880.714844 1201.101562 876.769531 1196.828125 C 872.828125 1192.5625 869.679688 1187.519531 867.3125 1182.085938 L 808.984375 1028.050781 C 806.621094 1022.617188 805.4375 1016.800781 805.4375 1010.980469 C 804.652344 985.757812 825.144531 965.582031 850.367188 965.582031 Z M 850.367188 965.582031 " fill-opacity="1" fill-rule="nonzero"/><path fill="#472ee7" d="M 710.847656 1023.792969 C 712.429688 1000.507812 732.523438 982.269531 756.175781 982.269531 C 779.820312 982.269531 799.921875 1000.507812 801.890625 1025.339844 L 803.859375 1191.792969 C 803.859375 1203.429688 799.128906 1214.683594 790.855469 1223.605469 C 782.578125 1232.144531 771.148438 1237.1875 758.539062 1237.1875 C 746.320312 1237.1875 734.890625 1232.535156 726.21875 1224.382812 C 717.554688 1216.234375 712.824219 1204.984375 712.429688 1192.960938 L 710.460938 1026.121094 C 710.847656 1025.339844 710.847656 1024.171875 710.847656 1023.792969 Z M 710.847656 1023.792969 " fill-opacity="1" fill-rule="nonzero"/><path fill="#472ee7" d="M 564.238281 1151.828125 L 619.808594 995.464844 C 620.203125 993.910156 620.988281 992.75 621.78125 991.582031 C 629.273438 976.058594 645.035156 965.976562 662.769531 965.976562 C 687.992188 965.976562 708.484375 986.148438 708.484375 1010.980469 C 708.484375 1016.023438 707.699219 1021.066406 706.121094 1025.730469 L 650.15625 1182.480469 C 645.824219 1193.339844 637.546875 1201.878906 626.511719 1206.535156 C 620.601562 1209.25 613.898438 1210.410156 607.589844 1210.410156 C 602.472656 1210.410156 597.347656 1209.640625 592.617188 1207.703125 C 581.582031 1203.816406 572.511719 1196.058594 567 1185.578125 C 561.484375 1175.878906 560.300781 1163.855469 564.238281 1151.828125 Z M 564.238281 1151.828125 " fill-opacity="1" fill-rule="nonzero"/><path fill="#472ee7" d="M 429.84375 1078.882812 C 431.820312 1073.066406 434.574219 1067.632812 438.515625 1062.976562 L 543.347656 939.589844 C 552.019531 927.175781 565.816406 920.191406 580.796875 920.191406 C 606.019531 920.191406 626.511719 940.367188 626.511719 965.199219 C 626.511719 978.003906 620.988281 990.03125 613.898438 995.855469 L 510.246094 1120.402344 C 506.304688 1125.058594 501.574219 1129.324219 496.449219 1132.429688 C 490.9375 1135.535156 485.023438 1137.472656 478.71875 1137.863281 C 477.140625 1137.863281 475.566406 1138.25 473.988281 1138.25 C 469.261719 1138.25 464.53125 1137.472656 460.191406 1136.304688 C 454.28125 1134.367188 448.765625 1131.261719 445.222656 1128.164062 C 440.492188 1124.277344 436.152344 1119.625 433.390625 1114.191406 C 430.636719 1108.765625 428.664062 1103.332031 427.878906 1096.730469 C 427.089844 1090.527344 427.878906 1084.703125 429.84375 1078.882812 Z M 429.84375 1078.882812 " fill-opacity="1" fill-rule="nonzero"/><path fill="#472ee7" d="M 329.351562 966.75 C 330.925781 960.539062 333.683594 954.722656 337.628906 949.679688 C 341.5625 944.632812 346.300781 940.75 351.417969 938.035156 L 493.300781 856.554688 C 501.1875 851.121094 510.246094 848.40625 519.703125 848.40625 C 544.925781 848.40625 565.421875 868.582031 565.421875 893.414062 C 565.421875 907.769531 558.722656 920.574219 547.292969 929.113281 C 546.109375 929.890625 544.925781 931.050781 543.746094 931.828125 L 397.925781 1017.191406 C 392.800781 1020.289062 387.285156 1022.234375 381.375 1023.007812 C 379.003906 1023.394531 377.035156 1023.394531 374.671875 1023.394531 C 370.730469 1023.394531 367.183594 1023.007812 363.246094 1021.847656 C 357.328125 1020.289062 351.816406 1017.574219 347.085938 1014.472656 C 342.355469 1010.980469 338.019531 1006.324219 335.652344 1002.449219 C 332.105469 997.402344 329.742188 991.191406 328.558594 984.988281 C 327.378906 978.777344 327.773438 972.5625 329.351562 966.75 Z M 329.351562 966.75 " fill-opacity="1" fill-rule="nonzero"/><path fill="#472ee7" d="M 282.058594 809.609375 C 288.753906 799.902344 299.394531 793.308594 311.222656 790.980469 L 477.140625 760.71875 C 478.320312 760.328125 479.898438 760.328125 481.082031 760.328125 C 483.058594 760.328125 485.023438 759.941406 485.8125 759.941406 C 511.03125 759.941406 531.527344 780.113281 531.527344 804.945312 C 531.527344 826.679688 515.761719 845.300781 494.085938 849.183594 L 328.171875 879.449219 C 325.410156 879.832031 322.648438 880.21875 319.886719 880.21875 C 310.828125 880.21875 301.757812 877.503906 293.882812 872.070312 C 284.027344 865.085938 276.933594 855 274.957031 843.359375 C 272.59375 831.722656 274.957031 819.308594 282.058594 809.609375 Z M 282.058594 809.609375 " fill-opacity="1" fill-rule="nonzero"/><path fill="#472ee7" d="M 281.265625 659.453125 C 284.421875 654.410156 288.753906 650.144531 293.484375 647.039062 C 298.609375 643.546875 304.125 641.21875 309.644531 640.054688 C 315.554688 638.890625 321.46875 638.890625 326.980469 639.667969 L 494.878906 666.828125 C 515.761719 671.484375 530.34375 689.332031 530.34375 710.671875 C 530.34375 735.503906 509.851562 755.679688 484.628906 755.679688 C 484.230469 755.679688 483.445312 755.679688 482.660156 755.679688 C 481.480469 755.679688 479.503906 755.679688 478.320312 755.292969 L 310.828125 728.519531 C 304.917969 727.355469 299.394531 725.414062 294.269531 721.921875 C 289.152344 718.820312 285.210938 714.550781 281.265625 709.507812 C 277.71875 704.464844 275.355469 699.03125 274.171875 693.597656 C 272.992188 687.777344 272.992188 681.960938 273.777344 676.140625 C 275.75 670.320312 277.71875 664.886719 281.265625 659.453125 Z M 281.265625 659.453125 " fill-opacity="1" fill-rule="nonzero"/><path fill="#472ee7" d="M 329.742188 519.773438 C 332.898438 514.339844 336.835938 509.683594 341.960938 505.804688 C 347.085938 501.925781 352.601562 499.207031 358.90625 497.65625 C 365.214844 496.105469 371.523438 495.714844 377.828125 496.878906 C 384.128906 498.042969 389.652344 499.984375 394.777344 503.089844 L 539.808594 585.730469 C 540.992188 586.507812 542.5625 587.285156 543.355469 588.449219 C 554.78125 596.984375 561.484375 610.175781 561.484375 624.144531 C 561.484375 648.976562 540.992188 669.152344 515.769531 669.152344 C 510.246094 669.152344 504.734375 668.375 499.609375 666.4375 C 498.027344 666.046875 496.457031 665.273438 494.878906 664.496094 L 348.269531 583.015625 C 342.753906 579.914062 337.628906 576.03125 334.082031 571.375 C 330.140625 566.332031 327.378906 560.898438 325.808594 554.691406 C 324.226562 548.484375 323.832031 542.664062 324.625 536.457031 C 325.015625 529.859375 326.988281 524.039062 329.742188 519.773438 Z M 329.742188 519.773438 " fill-opacity="1" fill-rule="nonzero"/><path fill="#472ee7" d="M 751.445312 167.078125 C 776.667969 167.078125 797.164062 187.253906 797.164062 212.085938 C 797.164062 236.917969 776.667969 257.09375 751.445312 257.09375 C 726.21875 257.09375 705.722656 236.917969 705.722656 212.085938 C 705.722656 187.253906 726.613281 167.078125 751.445312 167.078125 Z M 751.445312 167.078125 " fill-opacity="1" fill-rule="nonzero"/><path fill="#472ee7" d="M 941.011719 288.140625 C 915.761719 288.140625 895.296875 267.988281 895.296875 243.132812 C 895.296875 218.273438 915.761719 198.125 941.011719 198.125 C 966.265625 198.125 986.726562 218.273438 986.726562 243.132812 C 986.726562 267.988281 966.265625 288.140625 941.011719 288.140625 Z M 941.011719 288.140625 " fill-opacity="1" fill-rule="nonzero"/><path fill="#472ee7" d="M 1108.511719 381.648438 C 1083.261719 381.648438 1062.789062 361.496094 1062.789062 336.640625 C 1062.789062 311.785156 1083.261719 291.632812 1108.511719 291.632812 C 1133.757812 291.632812 1154.230469 311.785156 1154.230469 336.640625 C 1154.230469 361.496094 1133.757812 381.648438 1108.511719 381.648438 Z M 1108.511719 381.648438 " fill-opacity="1" fill-rule="nonzero"/><path fill="#472ee7" d="M 1233.050781 525.984375 C 1207.800781 525.984375 1187.335938 505.832031 1187.335938 480.976562 C 1187.335938 456.117188 1207.800781 435.96875 1233.050781 435.96875 C 1258.296875 435.96875 1278.769531 456.117188 1278.769531 480.976562 C 1278.769531 505.832031 1258.296875 525.984375 1233.050781 525.984375 Z M 1233.050781 525.984375 " fill-opacity="1" fill-rule="nonzero"/><path fill="#472ee7" d="M 1409.613281 683.125 C 1384.363281 683.125 1363.898438 662.972656 1363.898438 638.117188 C 1363.898438 613.257812 1384.363281 593.105469 1409.613281 593.105469 C 1434.859375 593.105469 1455.328125 613.257812 1455.328125 638.117188 C 1455.328125 662.972656 1434.859375 683.125 1409.613281 683.125 Z M 1409.613281 683.125 " fill-opacity="1" fill-rule="nonzero"/><path fill="#472ee7" d="M 1300.046875 613.675781 C 1325.277344 613.675781 1345.769531 633.851562 1345.769531 658.683594 C 1345.769531 683.511719 1325.277344 703.691406 1300.046875 703.691406 C 1274.824219 703.691406 1254.332031 683.511719 1254.332031 658.683594 C 1254.332031 633.851562 1274.824219 613.675781 1300.046875 613.675781 Z M 1300.046875 613.675781 " fill-opacity="1" fill-rule="nonzero"/><path fill="#472ee7" d="M 1301.625 802.625 C 1326.847656 802.625 1347.339844 822.800781 1347.339844 847.632812 C 1347.339844 872.464844 1326.847656 892.644531 1301.625 892.644531 C 1276.402344 892.644531 1255.910156 872.464844 1255.910156 847.632812 C 1255.910156 822.800781 1276.402344 802.625 1301.625 802.625 Z M 1301.625 802.625 " fill-opacity="1" fill-rule="nonzero"/><path fill="#472ee7" d="M 1237.382812 981.101562 C 1262.605469 981.101562 1283.101562 1001.28125 1283.101562 1026.113281 C 1283.101562 1050.945312 1262.605469 1071.121094 1237.382812 1071.121094 C 1212.164062 1071.121094 1191.667969 1050.945312 1191.667969 1026.113281 C 1191.667969 1001.28125 1212.164062 981.101562 1237.382812 981.101562 Z M 1237.382812 981.101562 " fill-opacity="1" fill-rule="nonzero"/><path fill="#472ee7" d="M 1114.820312 1217.003906 C 1089.570312 1217.003906 1069.097656 1196.859375 1069.097656 1171.996094 C 1069.097656 1147.144531 1089.570312 1126.988281 1114.820312 1126.988281 C 1140.066406 1126.988281 1160.535156 1147.144531 1160.535156 1171.996094 C 1160.535156 1196.859375 1140.066406 1217.003906 1114.820312 1217.003906 Z M 1114.820312 1217.003906 " fill-opacity="1" fill-rule="nonzero"/><path fill="#472ee7" d="M 948.898438 1312.84375 C 923.648438 1312.84375 903.175781 1292.691406 903.175781 1267.835938 C 903.175781 1242.976562 923.648438 1222.828125 948.898438 1222.828125 C 974.144531 1222.828125 994.613281 1242.976562 994.613281 1267.835938 C 994.613281 1292.691406 974.144531 1312.84375 948.898438 1312.84375 Z M 948.898438 1312.84375 " fill-opacity="1" fill-rule="nonzero"/><path fill="#472ee7" d="M 759.722656 1256.96875 C 784.945312 1256.96875 805.4375 1277.144531 805.4375 1301.976562 C 805.4375 1326.808594 784.945312 1346.988281 759.722656 1346.988281 C 734.5 1346.988281 714.007812 1326.808594 714.007812 1301.976562 C 714.007812 1277.144531 734.5 1256.96875 759.722656 1256.96875 Z M 759.722656 1256.96875 " fill-opacity="1" fill-rule="nonzero"/><path fill="#472ee7" d="M 569.757812 1315.5625 C 544.507812 1315.5625 524.042969 1295.40625 524.042969 1270.554688 C 524.042969 1245.691406 544.507812 1225.542969 569.757812 1225.542969 C 595.011719 1225.542969 615.476562 1245.691406 615.476562 1270.554688 C 615.476562 1295.40625 595.011719 1315.5625 569.757812 1315.5625 Z M 569.757812 1315.5625 " fill-opacity="1" fill-rule="nonzero"/><path fill="#472ee7" d="M 403.050781 1222.050781 C 377.800781 1222.050781 357.328125 1201.902344 357.328125 1177.039062 C 357.328125 1152.1875 377.800781 1132.03125 403.050781 1132.03125 C 428.296875 1132.03125 448.765625 1152.1875 448.765625 1177.039062 C 448.765625 1201.902344 428.296875 1222.050781 403.050781 1222.050781 Z M 403.050781 1222.050781 " fill-opacity="1" fill-rule="nonzero"/><path fill="#472ee7" d="M 181.554688 1044.34375 C 206.777344 1044.34375 227.277344 1064.519531 227.277344 1089.351562 C 227.277344 1114.183594 206.777344 1134.359375 181.554688 1134.359375 C 156.332031 1134.359375 135.839844 1114.183594 135.839844 1089.351562 C 135.839844 1064.519531 156.726562 1044.34375 181.554688 1044.34375 Z M 181.554688 1044.34375 " fill-opacity="1" fill-rule="nonzero"/><path fill="#472ee7" d="M 211.113281 900.402344 C 185.867188 900.402344 165.398438 880.25 165.398438 855.394531 C 165.398438 830.535156 185.867188 810.386719 211.113281 810.386719 C 236.367188 810.386719 256.828125 830.535156 256.828125 855.394531 C 256.828125 880.25 236.367188 900.402344 211.113281 900.402344 Z M 211.113281 900.402344 " fill-opacity="1" fill-rule="nonzero"/><path fill="#472ee7" d="M 209.542969 711.058594 C 184.292969 711.058594 163.824219 690.90625 163.824219 666.050781 C 163.824219 641.195312 184.292969 621.042969 209.542969 621.042969 C 234.785156 621.042969 255.257812 641.195312 255.257812 666.050781 C 255.257812 690.90625 234.785156 711.058594 209.542969 711.058594 Z M 209.542969 711.058594 " fill-opacity="1" fill-rule="nonzero"/><path fill="#472ee7" d="M 99.1875 693.210938 C 73.9375 693.210938 53.472656 673.058594 53.472656 648.203125 C 53.472656 623.34375 73.9375 603.195312 99.1875 603.195312 C 124.4375 603.195312 144.90625 623.34375 144.90625 648.203125 C 144.90625 673.058594 124.4375 693.210938 99.1875 693.210938 Z M 99.1875 693.210938 " fill-opacity="1" fill-rule="nonzero"/><path fill="#472ee7" d="M 274.171875 532.960938 C 248.921875 532.960938 228.457031 512.808594 228.457031 487.953125 C 228.457031 463.09375 248.921875 442.945312 274.171875 442.945312 C 299.425781 442.945312 319.886719 463.09375 319.886719 487.953125 C 319.886719 512.808594 299.425781 532.960938 274.171875 532.960938 Z M 274.171875 532.960938 " fill-opacity="1" fill-rule="nonzero"/><path fill="#472ee7" d="M 396.347656 386.691406 C 371.105469 386.691406 350.632812 366.539062 350.632812 341.683594 C 350.632812 316.824219 371.105469 296.675781 396.347656 296.675781 C 421.597656 296.675781 442.070312 316.824219 442.070312 341.683594 C 442.070312 366.539062 421.597656 386.691406 396.347656 386.691406 Z M 396.347656 386.691406 " fill-opacity="1" fill-rule="nonzero"/><path fill="#472ee7" d="M 323.832031 213.636719 C 349.054688 213.636719 369.546875 233.8125 369.546875 258.644531 C 369.546875 283.476562 349.054688 303.652344 323.832031 303.652344 C 298.609375 303.652344 278.117188 283.476562 278.117188 258.644531 C 278.117188 233.8125 298.609375 213.636719 323.832031 213.636719 Z M 323.832031 213.636719 " fill-opacity="1" fill-rule="nonzero"/><path fill="#472ee7" d="M 562.667969 291.238281 C 537.414062 291.238281 516.953125 271.089844 516.953125 246.230469 C 516.953125 221.375 537.414062 201.222656 562.667969 201.222656 C 587.910156 201.222656 608.382812 221.375 608.382812 246.230469 C 608.382812 271.089844 587.910156 291.238281 562.667969 291.238281 Z M 562.667969 291.238281 " fill-opacity="1" fill-rule="nonzero"/><path fill="#472ee7" d="M 278.117188 988.09375 C 303.339844 988.09375 323.832031 1008.269531 323.832031 1033.101562 C 323.832031 1057.933594 303.339844 1078.109375 278.117188 1078.109375 C 252.894531 1078.109375 232.402344 1057.933594 232.402344 1033.101562 C 232.402344 1008.269531 252.894531 988.09375 278.117188 988.09375 Z M 278.117188 988.09375 " fill-opacity="1" fill-rule="nonzero"/><path fill="#472ee7" d="M 532.707031 1419.550781 C 507.464844 1419.550781 486.992188 1399.394531 486.992188 1374.542969 C 486.992188 1349.679688 507.464844 1329.535156 532.707031 1329.535156 C 557.960938 1329.535156 578.425781 1349.679688 578.425781 1374.542969 C 578.425781 1399.394531 557.960938 1419.550781 532.707031 1419.550781 Z M 532.707031 1419.550781 " fill-opacity="1" fill-rule="nonzero"/><path fill="#472ee7" d="M 988.308594 1326.039062 C 1013.527344 1326.039062 1034.023438 1346.214844 1034.023438 1371.046875 C 1034.023438 1395.878906 1013.527344 1416.054688 988.308594 1416.054688 C 963.085938 1416.054688 942.589844 1395.878906 942.589844 1371.046875 C 942.589844 1346.214844 963.085938 1326.039062 988.308594 1326.039062 Z M 988.308594 1326.039062 " fill-opacity="1" fill-rule="nonzero"/><path fill="#472ee7" d="M 1334.335938 1035.03125 C 1359.558594 1035.03125 1380.054688 1055.210938 1380.054688 1080.042969 C 1380.054688 1104.875 1359.558594 1125.050781 1334.335938 1125.050781 C 1309.117188 1125.050781 1288.621094 1104.875 1288.621094 1080.042969 C 1288.621094 1055.210938 1309.117188 1035.03125 1334.335938 1035.03125 Z M 1334.335938 1035.03125 " fill-opacity="1" fill-rule="nonzero"/><path fill="#472ee7" d="M 1179.054688 296.675781 C 1153.808594 296.675781 1133.339844 276.523438 1133.339844 251.667969 C 1133.339844 226.8125 1153.808594 206.660156 1179.054688 206.660156 C 1204.304688 206.660156 1224.777344 226.8125 1224.777344 251.667969 C 1224.777344 276.523438 1204.304688 296.675781 1179.054688 296.675781 Z M 1179.054688 296.675781 " fill-opacity="1" fill-rule="nonzero"/><path fill="#472ee7" d="M 750.265625 146.902344 C 725.011719 146.902344 704.542969 126.753906 704.542969 101.894531 C 704.542969 77.039062 725.011719 56.886719 750.265625 56.886719 C 775.507812 56.886719 795.980469 77.039062 795.980469 101.894531 C 795.980469 126.753906 775.507812 146.902344 750.265625 146.902344 Z M 750.265625 146.902344 " fill-opacity="1" fill-rule="nonzero"/></svg>