<svg width="348" height="333" viewBox="0 0 348 333" fill="none" xmlns="http://www.w3.org/2000/svg">
<path d="M169.358 34.4118C171.719 32.0867 175.798 32.0867 178.16 34.4118C179.341 35.5744 179.985 37.1069 179.985 38.6922L180.2 60.8868C180.2 60.9925 180.2 61.3624 180.2 61.4681C180.039 64.7444 177.355 67.3338 173.973 67.3338C170.592 67.3338 167.908 64.7444 167.747 61.3624L167.479 38.6922C167.586 37.1069 168.23 35.5744 169.358 34.4118Z" fill="#472EE7"/>
<path d="M181.112 61.0987L188.519 40.3309C189.056 38.7984 190.183 37.5301 191.686 36.7903C193.135 36.1033 194.853 35.9977 196.409 36.5261C197.966 37.0545 199.254 38.1643 200.006 39.6439C200.757 41.1235 200.811 42.7617 200.274 44.3471L192.76 65.2205C191.954 67.8099 189.539 69.6066 186.802 69.6066C183.367 69.6066 180.575 66.8587 180.575 63.4767C180.629 62.5255 180.844 61.5743 181.112 61.0987Z" fill="#472EE7"/>
<path d="M129.531 50.1068C129.907 49.367 130.443 48.7328 130.873 48.3629C131.517 47.7816 132.215 47.3589 133.02 47.0418C133.825 46.7776 134.684 46.6191 135.542 46.7248C136.401 46.7776 137.206 46.989 138.011 47.4117C138.763 47.7816 139.407 48.3101 139.89 48.9442L154.382 65.9072C155.617 67.0698 156.261 68.6023 156.261 70.2933C156.261 73.6753 153.47 76.4232 150.035 76.4232C148.21 76.4232 146.492 75.6306 145.311 74.3095L130.336 57.0822C129.799 56.4481 129.37 55.7083 129.102 54.9685C128.833 54.1758 128.726 53.3303 128.78 52.5376C128.887 51.6393 129.102 50.8466 129.531 50.1068Z" fill="#472EE7"/>
<path d="M147.566 39.9608C148.264 38.4811 149.498 37.3186 151.055 36.7373C152.611 36.156 154.275 36.2088 155.778 36.8958C157.281 37.5828 158.462 38.7982 159.052 40.3307L166.889 60.8871C167.264 61.7326 167.479 62.5781 167.479 63.5293C167.479 66.9114 164.688 69.6593 161.253 69.6593C158.945 69.6593 156.798 68.391 155.724 66.3829C155.617 66.2244 155.563 66.0659 155.456 65.8545L147.351 44.6639C146.814 43.1314 146.868 41.4404 147.566 39.9608Z" fill="#472EE7"/>
<path d="M193.403 65.7479L207.842 48.5206C208.379 47.8865 209.023 47.4109 209.72 46.9882C210.418 46.6182 211.223 46.4069 212.028 46.354C212.834 46.3012 213.639 46.354 214.444 46.5654C215.249 46.7768 215.947 47.1995 216.591 47.6751C217.235 48.2036 217.772 48.8377 218.147 49.5247C218.523 50.2645 218.738 51.0043 218.845 51.8498C218.899 52.6425 218.845 53.4352 218.577 54.2278C218.362 54.9676 217.933 55.7075 217.45 56.2887L203.226 73.1461C202.045 74.8371 200.166 75.894 198.073 75.894C194.638 75.894 191.847 73.1461 191.847 69.764C191.847 68.2315 192.437 66.7519 193.403 65.7479Z" fill="#472EE7"/>
<path d="M203.118 74.3614L222.817 62.7885C224.212 61.9958 225.876 61.7316 227.487 62.1543C229.097 62.5771 230.439 63.5283 231.297 64.9551C231.727 65.6421 231.995 66.4347 232.103 67.2274C232.21 68.0201 232.156 68.8127 231.995 69.6054C231.781 70.3981 231.459 71.1379 230.975 71.772C230.492 72.4061 229.848 72.9346 229.151 73.3573L209.72 84.7189C208.701 85.353 207.573 85.67 206.393 85.67C202.957 85.67 200.166 82.9221 200.166 79.5401C200.22 77.4792 201.24 75.5768 203.118 74.3614Z" fill="#472EE7"/>
<path d="M209.291 85.6711C209.345 85.6711 209.882 85.5654 209.935 85.5126L232.156 81.3379C233.82 81.0208 235.43 81.3907 236.826 82.2891C238.168 83.1874 239.134 84.6142 239.456 86.1995C239.778 87.8377 239.402 89.423 238.49 90.797C237.577 92.1709 236.128 93.0693 234.518 93.3863L212.351 97.5082C212.189 97.5611 211.975 97.561 211.545 97.6139C211.438 97.6139 211.009 97.6667 210.901 97.6667C207.466 97.6667 204.675 94.9188 204.675 91.5368C204.729 88.8417 206.5 86.5166 209.291 85.6711Z" fill="#472EE7"/>
<path d="M211.438 98.2476C211.653 98.2476 211.867 98.3004 212.082 98.3532L234.303 102C235.108 102.105 235.914 102.317 236.665 102.739C237.416 103.109 238.061 103.638 238.544 104.325C239.08 104.959 239.456 105.751 239.617 106.544C239.832 107.337 239.832 108.182 239.724 108.975C239.563 109.82 239.295 110.613 238.812 111.3C238.383 111.987 237.738 112.621 237.041 113.044C236.343 113.467 235.591 113.837 234.733 113.995C234.303 114.101 233.928 114.101 233.498 114.101C233.069 114.101 232.693 114.048 232.371 113.995L209.613 110.296C209.345 110.243 209.13 110.19 208.915 110.085C206.393 109.239 204.675 106.914 204.675 104.272C204.729 100.943 207.52 98.3532 211.438 98.2476Z" fill="#472EE7"/>
<path d="M206.554 110.243C207.949 110.243 209.238 110.665 209.935 111.247L229.527 122.133C230.922 122.925 231.996 124.299 232.425 125.832C232.908 127.417 232.693 129.055 231.888 130.482C231.083 131.909 229.741 132.913 228.185 133.336C227.648 133.494 227.058 133.547 226.521 133.547C225.447 133.547 224.374 133.283 223.461 132.754L203.602 121.657C203.548 121.604 203.226 121.446 203.172 121.393C201.455 120.23 200.435 118.328 200.435 116.32C200.328 112.938 203.119 110.243 206.554 110.243Z" fill="#472EE7"/>
<path d="M198.288 120.072C199.791 120.072 201.293 120.653 202.421 121.657C202.582 121.763 202.743 121.921 202.85 122.08L217.825 139.043C218.416 139.677 218.845 140.364 219.167 141.157C219.435 141.949 219.596 142.795 219.489 143.64C219.435 144.486 219.221 145.278 218.791 146.071C218.416 146.811 217.825 147.498 217.342 147.868C216.698 148.449 216 148.872 215.195 149.083C214.551 149.295 213.853 149.4 213.156 149.4C212.994 149.4 212.887 149.4 212.726 149.4C211.867 149.348 211.062 149.136 210.311 148.766C209.559 148.396 208.915 147.868 208.379 147.287L194.047 130.799C192.759 129.637 192.008 127.998 192.008 126.255C192.062 122.767 194.853 120.072 198.288 120.072Z" fill="#472EE7"/>
<path d="M187.07 126.466C189.807 126.466 192.223 128.263 192.974 130.641L200.918 151.567C201.24 152.307 201.347 153.1 201.347 153.892C201.347 154.685 201.133 155.478 200.811 156.27C200.489 157.01 200.006 157.644 199.415 158.225C198.825 158.754 198.127 159.177 197.376 159.494C196.678 159.758 195.926 159.916 195.175 159.916C195.121 159.916 195.068 159.916 195.014 159.916C194.209 159.916 193.404 159.705 192.599 159.335C191.847 159.018 191.203 158.543 190.666 157.961C190.129 157.38 189.7 156.693 189.378 155.953L181.434 134.974C181.112 134.234 180.951 133.442 180.951 132.649C180.844 129.214 183.635 126.466 187.07 126.466Z" fill="#472EE7"/>
<path d="M168.069 134.394C168.284 131.223 171.021 128.739 174.242 128.739C177.462 128.739 180.2 131.223 180.468 134.605L180.736 157.275C180.736 158.86 180.092 160.393 178.965 161.608C177.838 162.771 176.281 163.458 174.564 163.458C172.9 163.458 171.343 162.824 170.162 161.714C168.982 160.604 168.338 159.072 168.284 157.434L168.016 134.711C168.069 134.605 168.069 134.446 168.069 134.394Z" fill="#472EE7"/>
<path d="M148.102 151.832L155.67 130.536C155.724 130.324 155.831 130.166 155.939 130.007C156.959 127.893 159.106 126.52 161.521 126.52C164.956 126.52 167.747 129.267 167.747 132.649C167.747 133.336 167.64 134.023 167.425 134.658L159.803 156.007C159.213 157.486 158.086 158.649 156.583 159.283C155.778 159.653 154.865 159.811 154.006 159.811C153.309 159.811 152.611 159.706 151.967 159.442C150.464 158.913 149.229 157.856 148.478 156.429C147.727 155.108 147.566 153.47 148.102 151.832Z" fill="#472EE7"/>
<path d="M129.799 141.897C130.068 141.105 130.443 140.365 130.98 139.731L145.257 122.926C146.438 121.235 148.317 120.284 150.357 120.284C153.792 120.284 156.583 123.032 156.583 126.414C156.583 128.158 155.831 129.796 154.865 130.589L140.749 147.552C140.212 148.186 139.568 148.767 138.87 149.19C138.119 149.613 137.314 149.877 136.455 149.93C136.24 149.93 136.026 149.983 135.811 149.983C135.167 149.983 134.523 149.877 133.932 149.718C133.127 149.454 132.376 149.031 131.893 148.609C131.249 148.08 130.658 147.446 130.282 146.706C129.907 145.967 129.638 145.227 129.531 144.328C129.424 143.483 129.531 142.69 129.799 141.897Z" fill="#472EE7"/>
<path d="M116.113 126.625C116.327 125.779 116.703 124.987 117.24 124.3C117.776 123.613 118.421 123.084 119.118 122.714L138.441 111.617C139.515 110.877 140.749 110.507 142.037 110.507C145.472 110.507 148.263 113.255 148.263 116.637C148.263 118.592 147.351 120.336 145.794 121.499C145.633 121.605 145.472 121.763 145.311 121.869L125.452 133.495C124.754 133.917 124.003 134.182 123.198 134.287C122.875 134.34 122.607 134.34 122.285 134.34C121.748 134.34 121.265 134.287 120.729 134.129C119.923 133.917 119.172 133.547 118.528 133.125C117.884 132.649 117.293 132.015 116.971 131.487C116.488 130.8 116.166 129.954 116.005 129.109C115.844 128.263 115.898 127.417 116.113 126.625Z" fill="#472EE7"/>
<path d="M109.672 105.223C110.584 103.901 112.033 103.003 113.644 102.686L136.24 98.5642C136.401 98.5113 136.616 98.5113 136.777 98.5113C137.046 98.5113 137.314 98.4585 137.421 98.4585C140.856 98.4585 143.647 101.206 143.647 104.588C143.647 107.548 141.5 110.084 138.548 110.613L115.952 114.735C115.576 114.787 115.2 114.84 114.824 114.84C113.59 114.84 112.355 114.47 111.282 113.73C109.94 112.779 108.974 111.405 108.705 109.82C108.383 108.235 108.705 106.544 109.672 105.223Z" fill="#472EE7"/>
<path d="M109.564 84.7726C109.994 84.0856 110.584 83.5044 111.228 83.0816C111.926 82.606 112.677 82.2889 113.429 82.1304C114.234 81.9719 115.039 81.9719 115.79 82.0776L138.656 85.7767C141.5 86.4108 143.486 88.8416 143.486 91.7481C143.486 95.1301 140.695 97.878 137.26 97.878C137.206 97.878 137.099 97.878 136.992 97.878C136.831 97.878 136.562 97.878 136.401 97.8252L113.59 94.1789C112.785 94.0204 112.033 93.7561 111.335 93.2805C110.638 92.8578 110.101 92.2765 109.564 91.5895C109.081 90.9026 108.759 90.1627 108.598 89.4229C108.437 88.6302 108.437 87.8376 108.544 87.0449C108.813 86.2523 109.081 85.5124 109.564 84.7726Z" fill="#472EE7"/>
<path d="M116.166 65.7483C116.596 65.0085 117.132 64.3744 117.83 63.8459C118.528 63.3175 119.279 62.9476 120.138 62.7362C120.997 62.5248 121.856 62.472 122.715 62.6305C123.573 62.789 124.325 63.0533 125.023 63.476L144.775 74.7318C144.936 74.8375 145.15 74.9432 145.258 75.1018C146.814 76.2643 147.727 78.061 147.727 79.9634C147.727 83.3455 144.936 86.0934 141.501 86.0934C140.749 86.0934 139.998 85.9877 139.3 85.7235C139.085 85.6706 138.871 85.5649 138.656 85.4592L118.689 74.3619C117.938 73.9392 117.24 73.4107 116.757 72.7766C116.22 72.0896 115.844 71.3498 115.63 70.5043C115.415 69.6588 115.361 68.8661 115.469 68.0206C115.522 67.1223 115.791 66.3296 116.166 65.7483Z" fill="#472EE7"/>
<path d="M173.598 17.7126C177.033 17.7126 179.824 20.4605 179.824 23.8426C179.824 27.2246 177.033 29.9725 173.598 29.9725C170.162 29.9725 167.371 27.2246 167.371 23.8426C167.371 20.4605 170.216 17.7126 173.598 17.7126Z" fill="#472EE7"/>
<path d="M199.415 34.2008C195.976 34.2008 193.189 31.4563 193.189 28.0709C193.189 24.6854 195.976 21.9409 199.415 21.9409C202.854 21.9409 205.641 24.6854 205.641 28.0709C205.641 31.4563 202.854 34.2008 199.415 34.2008Z" fill="#472EE7"/>
<path d="M222.227 46.9364C218.788 46.9364 216 44.1919 216 40.8064C216 37.421 218.788 34.6765 222.227 34.6765C225.665 34.6765 228.453 37.421 228.453 40.8064C228.453 44.1919 225.665 46.9364 222.227 46.9364Z" fill="#472EE7"/>
<path d="M239.188 66.5943C235.749 66.5943 232.962 63.8499 232.962 60.4644C232.962 57.0789 235.749 54.3345 239.188 54.3345C242.626 54.3345 245.414 57.0789 245.414 60.4644C245.414 63.8499 242.626 66.5943 239.188 66.5943Z" fill="#472EE7"/>
<path d="M263.234 87.9962C259.795 87.9962 257.008 85.2517 257.008 81.8663C257.008 78.4808 259.795 75.7363 263.234 75.7363C266.672 75.7363 269.46 78.4808 269.46 81.8663C269.46 85.2517 266.672 87.9962 263.234 87.9962Z" fill="#472EE7"/>
<path d="M248.312 78.5374C251.748 78.5374 254.539 81.2853 254.539 84.6673C254.539 88.0493 251.748 90.7972 248.312 90.7972C244.877 90.7972 242.086 88.0493 242.086 84.6673C242.086 81.2853 244.877 78.5374 248.312 78.5374Z" fill="#472EE7"/>
<path d="M248.527 104.272C251.962 104.272 254.753 107.02 254.753 110.402C254.753 113.784 251.962 116.532 248.527 116.532C245.092 116.532 242.301 113.784 242.301 110.402C242.301 107.02 245.092 104.272 248.527 104.272Z" fill="#472EE7"/>
<path d="M239.778 128.58C243.213 128.58 246.004 131.328 246.004 134.71C246.004 138.092 243.213 140.84 239.778 140.84C236.343 140.84 233.552 138.092 233.552 134.71C233.552 131.328 236.343 128.58 239.778 128.58Z" fill="#472EE7"/>
<path d="M223.086 160.709C219.647 160.709 216.859 157.965 216.859 154.579C216.859 151.194 219.647 148.449 223.086 148.449C226.524 148.449 229.312 151.194 229.312 154.579C229.312 157.965 226.524 160.709 223.086 160.709Z" fill="#472EE7"/>
<path d="M200.489 173.762C197.05 173.762 194.262 171.017 194.262 167.632C194.262 164.246 197.05 161.502 200.489 161.502C203.927 161.502 206.715 164.246 206.715 167.632C206.715 171.017 203.927 173.762 200.489 173.762Z" fill="#472EE7"/>
<path d="M174.725 166.152C178.16 166.152 180.951 168.9 180.951 172.282C180.951 175.664 178.16 178.412 174.725 178.412C171.29 178.412 168.499 175.664 168.499 172.282C168.499 168.9 171.29 166.152 174.725 166.152Z" fill="#472EE7"/>
<path d="M148.854 174.132C145.415 174.132 142.628 171.387 142.628 168.002C142.628 164.616 145.415 161.872 148.854 161.872C152.293 161.872 155.08 164.616 155.08 168.002C155.08 171.387 152.293 174.132 148.854 174.132Z" fill="#472EE7"/>
<path d="M126.15 161.396C122.711 161.396 119.923 158.652 119.923 155.266C119.923 151.881 122.711 149.136 126.15 149.136C129.588 149.136 132.376 151.881 132.376 155.266C132.376 158.652 129.588 161.396 126.15 161.396Z" fill="#472EE7"/>
<path d="M95.9845 137.193C99.4196 137.193 102.211 139.941 102.211 143.323C102.211 146.705 99.4196 149.453 95.9845 149.453C92.5493 149.453 89.7582 146.705 89.7582 143.323C89.7582 139.941 92.603 137.193 95.9845 137.193Z" fill="#472EE7"/>
<path d="M100.01 117.589C96.5715 117.589 93.7839 114.844 93.7839 111.459C93.7839 108.073 96.5715 105.329 100.01 105.329C103.449 105.329 106.236 108.073 106.236 111.459C106.236 114.844 103.449 117.589 100.01 117.589Z" fill="#472EE7"/>
<path d="M99.7958 91.8009C96.3571 91.8009 93.5696 89.0564 93.5696 85.671C93.5696 82.2855 96.3571 79.541 99.7958 79.541C103.234 79.541 106.022 82.2855 106.022 85.671C106.022 89.0564 103.234 91.8009 99.7958 91.8009Z" fill="#472EE7"/>
<path d="M84.7667 89.37C81.3281 89.37 78.5405 86.6255 78.5405 83.24C78.5405 79.8546 81.3281 77.1101 84.7667 77.1101C88.2053 77.1101 90.9929 79.8546 90.9929 83.24C90.9929 86.6255 88.2053 89.37 84.7667 89.37Z" fill="#472EE7"/>
<path d="M108.598 67.5445C105.159 67.5445 102.372 64.8001 102.372 61.4146C102.372 58.0291 105.159 55.2847 108.598 55.2847C112.037 55.2847 114.824 58.0291 114.824 61.4146C114.824 64.8001 112.037 67.5445 108.598 67.5445Z" fill="#472EE7"/>
<path d="M125.237 47.6232C121.799 47.6232 119.011 44.8787 119.011 41.4932C119.011 38.1077 121.799 35.3633 125.237 35.3633C128.676 35.3633 131.464 38.1077 131.464 41.4932C131.464 44.8787 128.676 47.6232 125.237 47.6232Z" fill="#472EE7"/>
<path d="M115.361 24.0537C118.796 24.0537 121.587 26.8016 121.587 30.1836C121.587 33.5657 118.796 36.3136 115.361 36.3136C111.926 36.3136 109.135 33.5657 109.135 30.1836C109.135 26.8016 111.926 24.0537 115.361 24.0537Z" fill="#472EE7"/>
<path d="M147.888 34.6229C144.449 34.6229 141.662 31.8784 141.662 28.493C141.662 25.1075 144.449 22.363 147.888 22.363C151.326 22.363 154.114 25.1075 154.114 28.493C154.114 31.8784 151.326 34.6229 147.888 34.6229Z" fill="#472EE7"/>
<path d="M109.135 129.532C112.57 129.532 115.361 132.28 115.361 135.662C115.361 139.044 112.57 141.792 109.135 141.792C105.7 141.792 102.909 139.044 102.909 135.662C102.909 132.28 105.7 129.532 109.135 129.532Z" fill="#472EE7"/>
<path d="M143.808 188.295C140.37 188.295 137.582 185.55 137.582 182.165C137.582 178.779 140.37 176.035 143.808 176.035C147.247 176.035 150.034 178.779 150.034 182.165C150.034 185.55 147.247 188.295 143.808 188.295Z" fill="#472EE7"/>
<path d="M205.856 175.559C209.291 175.559 212.082 178.307 212.082 181.689C212.082 185.071 209.291 187.819 205.856 187.819C202.421 187.819 199.63 185.071 199.63 181.689C199.63 178.307 202.421 175.559 205.856 175.559Z" fill="#472EE7"/>
<path d="M252.982 135.925C256.417 135.925 259.208 138.673 259.208 142.055C259.208 145.437 256.417 148.185 252.982 148.185C249.547 148.185 246.756 145.437 246.756 142.055C246.756 138.673 249.547 135.925 252.982 135.925Z" fill="#472EE7"/>
<path d="M231.834 35.3634C228.396 35.3634 225.608 32.6189 225.608 29.2335C225.608 25.848 228.396 23.1035 231.834 23.1035C235.273 23.1035 238.061 25.848 238.061 29.2335C238.061 32.6189 235.273 35.3634 231.834 35.3634Z" fill="#472EE7"/>
<path d="M173.437 14.9649C169.998 14.9649 167.21 12.2205 167.21 8.83501C167.21 5.44954 169.998 2.70508 173.437 2.70508C176.875 2.70508 179.663 5.44954 179.663 8.83501C179.663 12.2205 176.875 14.9649 173.437 14.9649Z" fill="#472EE7"/>
<path d="M0 222.66H20.5728C26.1728 222.66 30.3491 223.776 33.1016 226.009C35.8542 228.194 37.2304 231.352 37.2304 235.484C37.2304 238.097 36.4474 240.377 34.8813 242.324C33.3152 244.224 31.1084 245.411 28.261 245.886V245.958C31.4881 246.432 33.9796 247.667 35.7355 249.662C37.5389 251.61 38.4406 253.984 38.4406 256.787C38.4406 260.872 36.9694 264.054 34.0271 266.334C31.0847 268.566 26.8372 269.682 21.2847 269.682H0V222.66ZM19.2203 242.395C24.4406 242.395 27.0508 240.377 27.0508 236.339C27.0508 232.302 24.4406 230.284 19.2203 230.284H9.53897V242.395H19.2203ZM20.4305 262.273C23.0406 262.273 24.9864 261.75 26.2677 260.705C27.5966 259.613 28.261 258.069 28.261 256.074C28.261 254.079 27.5966 252.56 26.2677 251.515C24.9864 250.47 23.0406 249.947 20.4305 249.947H9.53897V262.273H20.4305Z" fill="#283560"/>
<path d="M67.1553 233.347C68.8164 233.347 70.0977 233.608 70.9994 234.131L69.7892 242.68C68.6977 241.968 67.2028 241.612 65.3045 241.612C62.9791 241.612 60.9621 242.466 59.2537 244.176C57.5926 245.839 56.7621 248.19 56.7621 251.23V269.682H47.0096V234.06H55.4808L56.1215 241.042C58.0672 235.912 61.7452 233.347 67.1553 233.347Z" fill="#283560"/>
<path d="M82.1311 228.93C78.0972 228.93 76.0803 227.196 76.0803 223.729C76.0803 220.214 78.0972 218.457 82.1311 218.457C86.165 218.457 88.182 220.214 88.182 223.729C88.182 227.196 86.165 228.93 82.1311 228.93ZM86.9718 269.682H77.2193V234.06H86.9718V269.682Z" fill="#283560"/>
<path d="M119.128 262.985C123.02 262.985 126.01 263.84 128.098 265.55C130.234 267.26 131.301 269.706 131.301 272.888C131.301 276.688 129.545 279.657 126.034 281.794C122.522 283.931 117.895 285 112.152 285C106.22 285 101.806 284.216 98.9116 282.649C96.0641 281.082 94.6404 278.944 94.6404 276.237C94.6404 274.622 95.1862 273.221 96.2777 272.033C97.3692 270.846 98.9828 269.991 101.118 269.469C99.5048 268.804 98.2235 267.877 97.2743 266.69C96.3251 265.455 95.8506 264.006 95.8506 262.344C95.8506 260.634 96.3489 259.162 97.3455 257.927C98.3421 256.692 99.7184 255.766 101.474 255.148C99.6709 254.103 98.2946 252.773 97.3455 251.158C96.3963 249.496 95.9218 247.596 95.9218 245.459C95.9218 241.707 97.3692 238.762 100.264 236.624C103.206 234.44 107.193 233.347 112.223 233.347C114.786 233.347 117.183 233.656 119.413 234.273C120.03 231.471 121.217 229.286 122.973 227.719C124.776 226.104 127.196 225.391 130.234 225.581L131.515 232.563C131.183 232.516 130.684 232.492 130.02 232.492C128.264 232.492 126.793 232.801 125.606 233.418C124.467 234.036 123.661 234.867 123.186 235.912C124.942 236.957 126.271 238.287 127.173 239.902C128.122 241.517 128.596 243.369 128.596 245.459C128.596 249.164 127.125 252.108 124.183 254.293C121.288 256.431 117.301 257.499 112.223 257.499C109.898 257.499 107.762 257.286 105.817 256.858C103.966 257.333 103.04 258.402 103.04 260.064C103.04 261.014 103.396 261.75 104.108 262.273C104.82 262.748 105.817 262.985 107.098 262.985H119.128ZM112.223 239.474C110.325 239.474 108.759 240.02 107.525 241.113C106.339 242.205 105.745 243.63 105.745 245.388C105.745 247.192 106.339 248.641 107.525 249.734C108.759 250.826 110.325 251.372 112.223 251.372C114.169 251.372 115.735 250.826 116.922 249.734C118.156 248.641 118.773 247.192 118.773 245.388C118.773 243.63 118.156 242.205 116.922 241.113C115.735 240.02 114.169 239.474 112.223 239.474ZM112.935 278.303C116.257 278.303 118.82 277.875 120.623 277.021C122.427 276.213 123.328 275.168 123.328 273.886C123.328 272.888 122.901 272.128 122.047 271.606C121.24 271.131 119.888 270.893 117.99 270.893H108.308C104.369 270.893 102.4 271.962 102.4 274.099C102.4 275.429 103.278 276.451 105.034 277.163C106.79 277.923 109.423 278.303 112.935 278.303Z" fill="#283560"/>
<path d="M158.713 233.347C162.557 233.347 165.642 234.463 167.967 236.696C170.34 238.928 171.527 242.134 171.527 246.314V269.682H161.774V249.164C161.774 243.749 159.662 241.042 155.438 241.042C153.161 241.042 151.215 241.849 149.601 243.464C148.035 245.079 147.252 247.549 147.252 250.873V269.682H137.5V218.457H147.252V240.115C148.344 237.836 149.862 236.149 151.808 235.057C153.801 233.917 156.103 233.347 158.713 233.347Z" fill="#283560"/>
<path d="M205.891 267.474C204.752 268.376 203.304 269.089 201.548 269.611C199.84 270.133 198.036 270.395 196.138 270.395C188.213 270.395 184.25 266.809 184.25 259.637V241.327H177.772V234.06H184.25V225.866L194.002 223.159V234.06H205.535V241.327H194.002V258.069C194.002 261.347 195.64 262.985 198.914 262.985C201.002 262.985 202.83 262.32 204.396 260.99L205.891 267.474Z" fill="#283560"/>
<path d="M253.529 222.66V269.682H243.706V249.876H222.99V269.682H213.167V222.66H222.99V241.968H243.706V222.66H253.529Z" fill="#283560"/>
<path d="M269.885 228.93C265.851 228.93 263.834 227.196 263.834 223.729C263.834 220.214 265.851 218.457 269.885 218.457C273.919 218.457 275.936 220.214 275.936 223.729C275.936 227.196 273.919 228.93 269.885 228.93ZM274.725 269.682H264.973V234.06H274.725V269.682Z" fill="#283560"/>
<path d="M305.387 233.347C307.048 233.347 308.33 233.608 309.231 234.131L308.021 242.68C306.93 241.968 305.435 241.612 303.536 241.612C301.211 241.612 299.194 242.466 297.486 244.176C295.825 245.839 294.994 248.19 294.994 251.23V269.682H285.242V234.06H293.713L294.353 241.042C296.299 235.912 299.977 233.347 305.387 233.347Z" fill="#283560"/>
<path d="M348 251.728C348 253.058 347.905 254.341 347.715 255.576H322.515C323.512 260.61 326.478 263.128 331.414 263.128C333.454 263.128 335.139 262.748 336.468 261.988C337.797 261.228 338.722 260.135 339.244 258.71L347.217 261.632C346.078 264.481 344.156 266.666 341.451 268.186C338.793 269.658 335.447 270.395 331.414 270.395C325.529 270.395 320.973 268.78 317.746 265.55C314.519 262.273 312.905 257.713 312.905 251.871C312.905 246.029 314.471 241.493 317.603 238.263C320.736 234.986 325.149 233.347 330.844 233.347C336.349 233.347 340.573 234.938 343.515 238.121C346.505 241.303 348 245.839 348 251.728ZM330.773 240.543C328.4 240.543 326.502 241.232 325.078 242.609C323.702 243.986 322.824 246.029 322.444 248.736H339.031C338.651 246.076 337.749 244.058 336.325 242.68C334.902 241.255 333.051 240.543 330.773 240.543Z" fill="#283560"/>
<path d="M170.817 326.89H154.984C153.939 326.89 152.945 326.336 152.458 325.389C151.912 324.306 152.11 323.005 152.954 322.155L163.97 311.051H156.081C153.904 311.051 152.148 309.278 152.148 307.086H166.737C167.781 307.086 168.775 307.641 169.262 308.588C169.814 309.67 169.61 310.971 168.766 311.821L157.751 322.925H166.887C169.064 322.925 170.82 324.698 170.82 326.89H170.817ZM233.483 306.794C231.215 306.794 229.173 307.782 227.781 309.361C226.374 307.779 224.329 306.794 222.078 306.794C217.865 306.794 214.431 310.423 214.431 314.653V326.893C216.609 326.893 218.364 325.12 218.364 322.928V314.612C218.364 312.57 219.933 310.842 221.945 310.756C224.067 310.67 225.825 312.393 225.825 314.517V322.931C225.825 325.123 227.58 326.896 229.757 326.896V314.615C229.757 312.573 231.327 310.844 233.339 310.759C235.46 310.673 237.218 312.396 237.218 314.52V322.934C237.218 325.126 238.974 326.899 241.151 326.899V314.659C241.139 310.426 237.699 306.8 233.486 306.8V306.791L233.483 306.794ZM190.648 316.99C190.648 322.618 186.11 327.188 180.529 327.188C174.947 327.188 170.41 322.618 170.41 316.99C170.41 311.361 174.959 306.791 180.529 306.791C186.098 306.791 190.648 311.361 190.648 316.99ZM186.718 316.99C186.718 313.556 183.939 310.753 180.532 310.753C177.124 310.753 174.345 313.553 174.345 316.99C174.345 320.426 177.124 323.226 180.532 323.226C183.939 323.226 186.718 320.426 186.718 316.99ZM212.455 316.99C212.455 322.618 207.918 327.188 202.336 327.188C196.754 327.188 192.217 322.618 192.217 316.99C192.217 311.361 196.766 306.791 202.336 306.791C207.906 306.791 212.455 311.361 212.455 316.99ZM208.525 316.99C208.525 313.556 205.746 310.753 202.342 310.753C198.937 310.753 196.155 313.553 196.155 316.99C196.155 320.426 198.934 323.226 202.342 323.226C205.749 323.226 208.525 320.426 208.525 316.99Z" fill="#0B5CFF"/>
<path d="M110.404 317.249C110.404 318.435 110.546 319.465 110.832 320.344C111.115 321.197 111.496 321.908 111.971 322.477C112.446 323.046 113.003 323.471 113.643 323.757C114.284 324.017 114.959 324.15 115.67 324.15C117.21 324.15 118.455 323.545 119.402 322.335C120.349 321.102 120.824 319.409 120.824 317.252C120.824 315.096 120.349 313.411 119.402 312.205C118.455 310.995 117.21 310.39 115.67 310.39C114.959 310.39 114.284 310.532 113.643 310.818C113.003 311.078 112.446 311.494 111.971 312.063C111.496 312.609 111.118 313.32 110.832 314.196C110.549 315.048 110.404 316.069 110.404 317.255V317.249ZM110.546 301V310.458C111.139 309.461 111.921 308.691 112.894 308.148C113.888 307.579 115.098 307.296 116.52 307.296C117.635 307.296 118.688 307.52 119.685 307.971C120.68 308.423 121.559 309.074 122.317 309.927C123.075 310.78 123.668 311.824 124.096 313.057C124.547 314.29 124.771 315.689 124.771 317.252C124.771 318.816 124.547 320.214 124.096 321.447C123.668 322.68 123.075 323.734 122.317 324.613C121.559 325.465 120.683 326.117 119.685 326.569C118.691 327.02 117.635 327.244 116.52 327.244C115.098 327.244 113.888 326.973 112.894 326.427C111.924 325.858 111.139 325.076 110.546 324.082V326.784H106.849V301.006H110.546V301ZM127.137 333V330.05H128.595C129.093 330.05 129.518 330.026 129.875 329.979C130.256 329.932 130.586 329.814 130.869 329.622C131.152 329.433 131.415 329.147 131.651 328.77C131.887 328.389 132.126 327.858 132.362 327.171L132.504 326.743L125.606 307.65H129.695L134.318 321.908L138.835 307.65H142.676L135.92 327.206C135.516 328.345 135.126 329.28 134.746 330.014C134.389 330.749 133.952 331.342 133.43 331.793C132.931 332.245 132.315 332.552 131.58 332.717C130.869 332.906 129.981 333 128.913 333H127.134H127.137Z" fill="#283560"/>
</svg>
